<svg width="255" height="40" viewBox="0 0 255 40" fill="none" xmlns="http://www.w3.org/2000/svg">
<path d="M39.7924 22.7067L22.5787 39.4069H0.623047L27.9393 12.2969C38.0945 2.24682 42.9901 0.597412 60.3048 0.597412H128.699L113.854 15.1308H62.2615C49.325 15.1308 46.5719 16.1293 39.7883 22.7067H39.7924ZM111.638 17.4513H62.5728C49.5433 17.4513 47.5058 18.4498 41.5954 24.3561L26.5446 39.4069H46.9034L51.7465 34.5638C54.9483 31.362 56.3754 31.0588 62.8274 31.0588H98.0309L111.638 17.4513ZM116.951 39.4069L155.861 0.597412H131.69L92.8806 39.4069H116.951Z" fill="white"/>
<path d="M133.291 39.4071C132.066 39.4071 131.047 38.9988 130.238 38.1781C129.426 37.3574 129.021 36.3508 129.021 35.1542C129.021 33.9576 129.426 32.9509 130.23 32.1384C131.035 31.3258 132.049 30.9175 133.274 30.9175C134.499 30.9175 135.51 31.3258 136.31 32.1464C137.111 32.9671 137.511 33.9737 137.511 35.1704C137.511 36.367 137.115 37.3736 136.318 38.1862C135.522 38.9988 134.515 39.4071 133.291 39.4071ZM133.266 31.5845C132.264 31.5845 131.423 31.9322 130.744 32.6275C130.069 33.3229 129.729 34.1637 129.729 35.1542C129.729 36.1446 130.069 36.9855 130.744 37.6808C131.419 38.3762 132.26 38.7239 133.266 38.7239C134.273 38.7239 135.11 38.3802 135.789 37.6889C136.464 36.9976 136.804 36.1568 136.804 35.1623C136.804 34.1678 136.464 33.3229 135.789 32.6275C135.114 31.9322 134.273 31.5845 133.266 31.5845ZM132.438 35.8617V37.5272H131.504V32.8175H133.274C133.885 32.8175 134.346 32.9307 134.653 33.1612C134.96 33.3875 135.114 33.7312 135.114 34.188C135.114 34.6448 135.053 34.9844 134.928 35.2067C134.802 35.4291 134.592 35.607 134.293 35.7444L135.178 37.5313H134.196L133.392 35.8657H132.442L132.438 35.8617ZM132.421 33.5452V35.1299H133.371C133.662 35.1299 133.873 35.0693 133.998 34.944C134.127 34.8186 134.192 34.6165 134.192 34.3376C134.192 33.808 133.861 33.5452 133.194 33.5452H132.421Z" fill="white"/>
<path d="M182.717 27.19H214.023L216.348 24.8695H185.042L209.382 0.597412H254.547L242.298 12.8143H215.066L212.742 15.1308H227.631C232.434 15.1308 234.374 15.8706 235.781 17.617C238.061 20.4792 235.967 24.7078 232.862 28.5403C229.466 32.7123 226.216 35.5745 221.898 37.2724C217.338 39.0674 212.584 39.4069 207.102 39.4069H170.468L182.717 27.19Z" fill="white"/>
<path d="M167.48 39.4069L206.391 0.597412H158.849L146.6 12.8184H170.015L143.354 39.4069H167.48Z" fill="white"/>
</svg>
